# xmcd
#
# Track frame offsets:
# 150
# 5902
# 24322
# 53923
# 77382
# 91763
# 114881
# 136135
# 156539
# 173640
# 190232
# 197473
# 216993
# 236134
# 247667
#
# Disc length: 3546 seconds
#
# Revision: 0
# Processed by: cddbd v1.4PL0 Copyright (c) Steve Scherf et al.
# Submitted via: Audion 3.0.2 (http://www.panic.com/audion/)
#
DISCID=b70dd80f
DTITLE=Thawfor - Where Thawght Is Worshiped
DYEAR=1900
DGENRE=
TTITLE0=Within
TTITLE1=Passion
TTITLE2=Where Thawght Is Worshiped
TTITLE3=Essence Of Lost Souls
TTITLE4=Touch Down
TTITLE5=Dreamscape
TTITLE6=Time
TTITLE7=Pathways Of Intuition
TTITLE8=Memories
TTITLE9=Savor The Moment
TTITLE10=Caught In The Middle
TTITLE11=Vietnam ('74-'93)
TTITLE12=So Many Ways
TTITLE13=The Universe Will Guide Us
TTITLE14=The Final Warning
EXTD=
EXTT0=
EXTT1=
EXTT2=
EXTT3=
EXTT4=
EXTT5=
EXTT6=
EXTT7=
EXTT8=
EXTT9=
EXTT10=
EXTT11=
EXTT12=
EXTT13=
EXTT14=
PLAYORDER=
